<?xml version="1.0" encoding="utf-8"?>
<!-- Generator: Adobe Illustrator 17.1.0, SVG Export Plug-In . SVG Version: 6.00 Build 0)  -->
<!DOCTYPE svg PUBLIC "-//W3C//DTD SVG 1.1//EN" "http://www.w3.org/Graphics/SVG/1.1/DTD/svg11.dtd">
<svg version="1.1" id="Layer_1" xmlns="http://www.w3.org/2000/svg" xmlns:xlink="http://www.w3.org/1999/xlink" x="0px" y="0px"
	 viewBox="0 0 32 29" enable-background="new 0 0 32 29" xml:space="preserve">
<ellipse fill="#FFFFFF" cx="16.4" cy="10.5" rx="14.3" ry="8.8"/>
<g>
	<radialGradient id="SVGID_1_" cx="15.8436" cy="22.893" r="14.1011" fx="15.814" fy="22.893" gradientUnits="userSpaceOnUse">
		<stop  offset="0.5909" style="stop-color:#BF2A21"/>
		<stop  offset="0.9706" style="stop-color:#DF9490"/>
	</radialGradient>
	<path fill="url(#SVGID_1_)" d="M31.7,10.7c0-5.8-7-10.4-15.7-10.4S0.3,5,0.3,10.7c0,3.5,2.6,6.6,6.6,8.5c0.1,0,9,5.1,9,9.5
		c0-4.3,8.9-9.4,8.9-9.4l0,0C29,17.4,31.7,14.3,31.7,10.7z M16,18.2c-6.8,0-12.3-3.4-12.3-7.5S9.2,3.2,16,3.2s12.3,3.4,12.3,7.5
		S22.8,18.2,16,18.2z"/>
</g>
<rect x="0.3" y="20.5" fill="none" width="33.8" height="24.3"/>
<path fill="#48484A" d="M20.3,15.1h-0.2V4.6h-7.2v1.7h-1.2c-0.8,0-1.4,0.6-1.4,1.4v4c0,0.8,0.6,1.4,1.4,1.4h1.2v2h-0.2
	c-0.4,0-0.6,0.3-0.6,0.7c0,0.4,0.3,0.7,0.6,0.7h7.6c0.4,0,0.6-0.3,0.6-0.7C21,15.4,20.7,15.1,20.3,15.1z M12.4,11.6
	c-0.5,0-0.8-0.3-0.8-0.8V8.5c0-0.4,0.4-0.8,0.8-0.8h0.6v3.9H12.4z"/>
</svg>
